<svg width="80" height="6" viewBox="0 0 80 6" fill="none">
  <g clip-path="url(#a)" fill="none">
    <path fill="currentColor" d="M.91 5.73 0 .43h1.43l.28 2.31.09.83.09.83h.03l.15-.83c.05-.28.1-.56.15-.83L2.74.43h1.17l.49 2.31c.05.27.1.54.15.82l.15.84h.03l.09-.84.09-.82.31-2.31h1.34l-.9 5.3H3.88l-.41-2.1c-.04-.21-.07-.42-.11-.63-.03-.21-.06-.42-.09-.61h-.03L3.15 3c-.03.21-.07.42-.11.63l-.39 2.1H.91ZM8.91 5.82c-.35 0-.67-.08-.98-.25-.31-.17-.56-.41-.75-.73-.19-.32-.29-.7-.29-1.15 0-.45.1-.84.29-1.15.19-.32.44-.56.75-.73.31-.17.63-.25.98-.25s.67.08.98.25c.31.17.56.41.75.73.19.32.29.7.29 1.15 0 .45-.1.84-.29 1.15-.19.32-.44.56-.75.73-.31.17-.63.25-.98.25Zm0-1.12c.14 0 .26-.04.34-.12.09-.08.15-.2.19-.35.04-.15.06-.33.06-.54 0-.21-.02-.39-.06-.54a.695.695 0 0 0-.19-.35.487.487 0 0 0-.34-.12.47.47 0 0 0-.34.12c-.09.08-.15.2-.19.35-.04.15-.06.33-.06.54 0 .21.02.39.06.54.04.15.1.27.19.35.09.08.2.12.34.12ZM11.67 5.73V1.65h1.14l.1.7h.03c.15-.28.33-.48.54-.61.21-.13.41-.19.62-.19.12 0 .23 0 .3.02.08.01.15.03.2.06l-.26 1.19c-.07-.02-.14-.03-.2-.04-.06-.01-.14-.01-.23-.01-.15 0-.3.05-.46.15-.16.1-.29.28-.39.53v2.26h-1.4l.01.02ZM15.07 5.73V.06h1.38v3h.03l1.09-1.4h1.53l-1.43 1.71 1.51 2.36h-1.51l-.81-1.45-.41.46v.99h-1.38ZM28.02 5.73l-.91-5.3h1.43l.28 2.31.09.83.09.83h.03l.15-.83c.05-.28.1-.56.15-.83l.52-2.31h1.17l.49 2.31c.05.27.1.54.15.82l.15.84h.03l.09-.84.09-.82.31-2.31h1.34l-.9 5.3h-1.78l-.41-2.1c-.04-.21-.07-.42-.11-.63-.03-.21-.06-.42-.09-.61h-.03l-.09.61c-.03.21-.07.42-.11.63l-.39 2.1h-1.74ZM36.02 5.82c-.35 0-.67-.08-.98-.25-.31-.17-.56-.41-.75-.73-.19-.32-.29-.7-.29-1.15 0-.45.1-.84.29-1.15.19-.32.44-.56.75-.73.31-.17.63-.25.98-.25s.67.08.98.25c.31.17.56.41.75.73.19.32.29.7.29 1.15 0 .45-.1.84-.29 1.15-.19.32-.44.56-.75.73-.31.17-.63.25-.98.25Zm0-1.12c.14 0 .26-.04.34-.12.09-.08.15-.2.19-.35.04-.15.06-.33.06-.54 0-.21-.02-.39-.06-.54a.695.695 0 0 0-.19-.35.487.487 0 0 0-.34-.12.47.47 0 0 0-.34.12c-.09.08-.15.2-.19.35-.04.15-.06.33-.06.54 0 .21.02.39.06.54.04.15.1.27.19.35.09.08.2.12.34.12ZM38.77 5.73V1.65h1.14l.1.7h.03c.15-.28.33-.48.54-.61.21-.13.41-.19.62-.19.12 0 .23 0 .3.02.08.01.15.03.2.06l-.26 1.19c-.07-.02-.14-.03-.2-.04-.06-.01-.14-.01-.23-.01-.15 0-.3.05-.46.15-.16.1-.29.28-.39.53v2.26h-1.4l.01.02ZM42.18 5.73V.06h1.38v3h.03l1.09-1.4h1.53l-1.43 1.71 1.51 2.36h-1.51l-.81-1.45-.41.46v.99h-1.38ZM55.11 5.73 54.2.43h1.43l.28 2.31.09.83.09.83h.03l.15-.83c.05-.28.1-.56.15-.83l.52-2.31h1.17l.49 2.31c.05.27.1.54.15.82l.15.84h.03l.09-.84.09-.82.31-2.31h1.34l-.9 5.3h-1.78l-.41-2.1c-.04-.21-.07-.42-.11-.63-.03-.21-.06-.42-.09-.61h-.03l-.09.61c-.03.21-.07.42-.11.63l-.39 2.1h-1.74ZM63.11 5.82c-.35 0-.67-.08-.98-.25-.31-.17-.56-.41-.75-.73-.19-.32-.29-.7-.29-1.15 0-.45.1-.84.29-1.15.19-.32.44-.56.75-.73.31-.17.63-.25.98-.25s.67.08.98.25c.31.17.56.41.75.73.19.32.29.7.29 1.15 0 .45-.1.84-.29 1.15-.19.32-.44.56-.75.73-.31.17-.63.25-.98.25Zm0-1.12c.14 0 .26-.04.34-.12.09-.08.15-.2.19-.35.04-.15.06-.33.06-.54 0-.21-.02-.39-.06-.54a.695.695 0 0 0-.19-.35.487.487 0 0 0-.34-.12.47.47 0 0 0-.34.12c-.09.08-.15.2-.19.35-.04.15-.06.33-.06.54 0 .21.02.39.06.54.04.15.1.27.19.35.09.08.2.12.34.12ZM65.87 5.73V1.65h1.14l.1.7h.03c.15-.28.33-.48.54-.61.21-.13.41-.19.62-.19.12 0 .23 0 .3.02.08.01.15.03.2.06l-.26 1.19c-.07-.02-.14-.03-.2-.04-.06-.01-.14-.01-.23-.01-.15 0-.3.05-.46.15-.16.1-.29.28-.39.53v2.26h-1.4l.01.02ZM69.27 5.73V.06h1.38v3h.03l1.09-1.4h1.53l-1.43 1.71 1.51 2.36h-1.51l-.81-1.45-.41.46v.99h-1.38ZM79.95 2.19h-2.3L76.94 0l-.71 2.19h-2.3l1.86 1.35-.71 2.19 1.86-1.35 1.86 1.35-.71-2.19 1.86-1.35ZM25.98 2.44h-1.74l1.23-1.23-.63-.64L23.6 1.8V.06h-.9V1.8L21.47.57l-.64.63 1.24 1.24h-1.75v.9h1.74l-1.23 1.24.64.63 1.23-1.23v1.74h.9V3.98l1.24 1.23.63-.64-1.23-1.23h1.74v-.9ZM49.03 5.72l-1.01-.74.87-1.55-1.62-.75.39-1.2 1.75.35.2-1.77h1.27l.2 1.78 1.75-.36.39 1.2-1.64.75.88 1.55-1.01.74-1.22-1.32-1.22 1.32h.02Z"/>
  </g>
</svg>