<svg width="24" height="24" viewBox="0 0 24 24">
  <path d="M17.1319 12.2031C17.3681 12.0738 17.5613 11.9663 17.756 11.8616C19.4441 10.9585 21.1329 10.0561 22.821 9.15302C23.0402 9.03565 23.0445 9.02441 22.9074 8.81146C21.9207 7.28079 20.9333 5.75083 19.9445 4.22157C19.818 4.02549 19.8109 4.02479 19.6191 4.1541C18.0997 5.17876 16.5802 6.20342 15.0601 7.22809C14.9983 7.26955 14.9343 7.3082 14.8549 7.3588C14.8549 7.12899 14.8458 6.92237 14.8563 6.71646C14.895 5.98626 14.9406 5.25607 14.9828 4.52587C15.0383 3.55603 15.0939 2.58619 15.148 1.61634C15.1564 1.47016 15.1571 1.32398 15.1592 1.1778C15.1606 1.06395 15.103 1.00422 14.9877 1.00211C14.9406 1.00141 14.8943 1 14.8472 1C12.9616 1 11.076 1 9.19045 1C8.88263 1 8.86506 1.03022 8.88474 1.33242C8.93323 2.0858 8.97119 2.83989 9.01405 3.59328C9.06817 4.53993 9.12228 5.48588 9.1771 6.43253C9.19186 6.68343 9.20732 6.93502 9.21997 7.18592C9.22208 7.23652 9.21083 7.28712 9.2017 7.37989C9.10331 7.32437 9.02811 7.28923 8.95994 7.24284C7.44473 6.2224 5.93023 5.20055 4.41573 4.1794C4.18381 4.02268 4.1817 4.02268 4.0299 4.25811C3.05443 5.7684 2.07967 7.27869 1.10561 8.78897C0.950294 9.02933 0.9517 9.03214 1.20049 9.16567C3.01789 10.1376 4.83529 11.1089 6.6527 12.0808C6.71243 12.1131 6.77006 12.1504 6.85791 12.2038C6.78693 12.2523 6.74406 12.2874 6.69627 12.3134C4.98217 13.2299 3.26738 14.1456 1.55258 15.0613C1.41835 15.133 1.28833 15.2131 1.14989 15.2764C1.00863 15.3403 0.988245 15.4106 1.07539 15.5449C1.52166 16.2258 1.9602 16.9111 2.40084 17.5956C2.93707 18.4277 3.47189 19.2598 4.00811 20.0912C4.19857 20.3863 4.19997 20.3863 4.4839 20.1945C5.97451 19.1895 7.46441 18.1838 8.95432 17.1788C9.02038 17.1338 9.09136 17.0966 9.19959 17.0326C9.20732 17.1444 9.22067 17.2203 9.21646 17.2955C9.14899 18.5282 9.08012 19.7609 9.00984 20.9935C8.96908 21.7062 8.9234 22.4188 8.87912 23.1314C8.86436 23.3732 8.89599 23.4125 9.13493 23.4125C11.0732 23.4132 13.0115 23.4118 14.9498 23.4153C15.1163 23.4153 15.1761 23.3647 15.1655 23.1912C15.103 22.1869 15.0489 21.1819 14.9934 20.1769C14.9385 19.1719 14.8858 18.1669 14.8331 17.162C14.8317 17.1346 14.8401 17.1071 14.8486 17.0516C14.928 17.0994 14.9927 17.1346 15.0531 17.1753C16.5683 18.1965 18.0828 19.2183 19.5973 20.2395C19.8117 20.3835 19.8131 20.3835 19.9543 20.1657C20.9424 18.6364 21.9306 17.1064 22.918 15.5765C23.0395 15.3888 23.0325 15.3642 22.8329 15.2581C20.993 14.2784 19.1531 13.2987 17.314 12.3191C17.2648 12.2931 17.2184 12.2593 17.1312 12.2045L17.1319 12.2031Z" fill="currentColor"/>
</svg>
