<svg width="60" height="60" viewBox="0 0 60 60" fill="none" xmlns="http://www.w3.org/2000/svg"><g filter="url(#a)"><rect width="60" height="60" rx="14" fill="url(#b)"/><g clip-path="url(#c)"><path d="M29.84 30.838c0-4.103 3.32-7.445 7.43-7.445 4.093 0 7.429 3.326 7.429 7.445 0 4.103-3.319 7.445-7.43 7.445-4.093 0-7.428-3.342-7.428-7.445Z" fill="#00B4FC"/><path d="M29.84 30.838c0-4.103 3.32-7.445 7.43-7.445 4.093 0 7.429 3.326 7.429 7.445 0 4.103-3.319 7.445-7.43 7.445-4.093 0-7.428-3.342-7.428-7.445Z" fill="url(#d)" fill-opacity=".2"/><path d="M29.84 30.838c0-4.103 3.32-7.445 7.43-7.445 4.093 0 7.429 3.326 7.429 7.445 0 4.103-3.319 7.445-7.43 7.445-4.093 0-7.428-3.342-7.428-7.445Z" fill="url(#e)" fill-opacity=".2"/><path d="M15 45.712c0-4.103 3.319-7.446 7.429-7.446h7.429v7.446c0 4.102-3.319 7.445-7.43 7.445-4.11 0-7.428-3.326-7.428-7.445Z" fill="#1DBF67"/><path d="M15 45.712c0-4.103 3.319-7.446 7.429-7.446h7.429v7.446c0 4.102-3.319 7.445-7.43 7.445-4.11 0-7.428-3.326-7.428-7.445Z" fill="url(#f)" fill-opacity=".2"/><path d="M15 45.712c0-4.103 3.319-7.446 7.429-7.446h7.429v7.446c0 4.102-3.319 7.445-7.43 7.445-4.11 0-7.428-3.326-7.428-7.445Z" fill="url(#g)" fill-opacity=".15"/><path d="M29.84 8.519v14.874h7.43c4.093 0 7.429-3.326 7.429-7.446 0-4.102-3.319-7.445-7.43-7.445h-7.428v.017Z" fill="#F5682D"/><path d="M29.84 8.519v14.874h7.43c4.093 0 7.429-3.326 7.429-7.446 0-4.102-3.319-7.445-7.43-7.445h-7.428v.017Z" fill="url(#h)" fill-opacity=".2"/><path d="M15 15.964c0 4.103 3.319 7.446 7.429 7.446h7.429V8.519h-7.43c-4.11 0-7.428 3.326-7.428 7.445Z" fill="#F42C2C"/><path d="M15 15.964c0 4.103 3.319 7.446 7.429 7.446h7.429V8.519h-7.43c-4.11 0-7.428 3.326-7.428 7.445Z" fill="url(#i)" fill-opacity=".2"/><path d="M15 15.964c0 4.103 3.319 7.446 7.429 7.446h7.429V8.519h-7.43c-4.11 0-7.428 3.326-7.428 7.445Z" fill="url(#j)" fill-opacity=".15"/><path d="M15 30.838c0 4.103 3.319 7.445 7.429 7.445h7.429v-14.89h-7.43c-4.11 0-7.428 3.342-7.428 7.445Z" fill="#7D45F5"/><path d="M15 30.838c0 4.103 3.319 7.445 7.429 7.445h7.429v-14.89h-7.43c-4.11 0-7.428 3.342-7.428 7.445Z" fill="url(#k)" fill-opacity=".2"/><path d="M15 30.838c0 4.103 3.319 7.445 7.429 7.445h7.429v-14.89h-7.43c-4.11 0-7.428 3.342-7.428 7.445Z" fill="url(#l)" fill-opacity=".15"/></g></g><defs><linearGradient id="b" x1="30" y1="0" x2="30" y2="60" gradientUnits="userSpaceOnUse"><stop stop-color="#252220"/><stop offset="1" stop-color="#141414"/></linearGradient><linearGradient id="e" x1="37.27" y1="27" x2="37.27" y2="33.5" gradientUnits="userSpaceOnUse"><stop stop-color="#fff" stop-opacity="0"/><stop offset="1"/></linearGradient><linearGradient id="g" x1="26" y1="39.5" x2="20" y2="47.374" gradientUnits="userSpaceOnUse"><stop stop-color="#fff" stop-opacity="0"/><stop offset="1"/></linearGradient><linearGradient id="h" x1="37.27" y1="14" x2="37.27" y2="19.5" gradientUnits="userSpaceOnUse"><stop stop-opacity="0"/><stop offset="1"/></linearGradient><linearGradient id="j" x1="24.5" y1="11.626" x2="20" y2="17.626" gradientUnits="userSpaceOnUse"><stop stop-color="#fff" stop-opacity="0"/><stop offset="1"/></linearGradient><linearGradient id="l" x1="24.5" y1="26.5" x2="20" y2="32.5" gradientUnits="userSpaceOnUse"><stop stop-color="#fff" stop-opacity="0"/><stop offset="1"/></linearGradient><radialGradient id="d" cx="0" cy="0" r="1" gradientUnits="userSpaceOnUse" gradientTransform="matrix(0 -9 19.9857 0 37 38)"><stop stop-opacity="0"/><stop offset=".538"/></radialGradient><radialGradient id="f" cx="0" cy="0" r="1" gradientUnits="userSpaceOnUse" gradientTransform="matrix(2 -5 4.98891 1.99556 18.5 52.5)"><stop stop-color="#fff" stop-opacity="0"/><stop offset="1"/></radialGradient><radialGradient id="i" cx="0" cy="0" r="1" gradientUnits="userSpaceOnUse" gradientTransform="matrix(4 -4 3.99113 3.99113 15.5 23.126)"><stop stop-color="#fff" stop-opacity="0"/><stop offset="1"/></radialGradient><radialGradient id="k" cx="0" cy="0" r="1" gradientUnits="userSpaceOnUse" gradientTransform="matrix(4 -4 3.99113 3.99113 15.5 38)"><stop stop-color="#fff" stop-opacity="0"/><stop offset="1"/></radialGradient><clipPath id="c"><path fill="#fff" transform="translate(15 8.481)" d="M0 0h30v45.556H0z"/></clipPath><filter id="a" x="0" y="0" width="60" height="60" filterUnits="userSpaceOnUse" color-interpolation-filters="sRGB"><feFlood flood-opacity="0" result="BackgroundImageFix"/><feBlend in="SourceGraphic" in2="BackgroundImageFix" result="shape"/><feColorMatrix in="SourceAlpha" values="0 0 0 0 0 0 0 0 0 0 0 0 0 0 0 0 0 0 127 0" result="hardAlpha"/><feOffset dy=".25"/><feComposite in2="hardAlpha" operator="arithmetic" k2="-1" k3="1"/><feColorMatrix values="0 0 0 0 1 0 0 0 0 1 0 0 0 0 1 0 0 0 0.05 0"/><feBlend in2="shape" result="effect1_innerShadow_717_6674"/></filter></defs></svg>