<svg width="60" height="60" viewBox="0 0 60 60" fill="none" xmlns="http://www.w3.org/2000/svg"><g clip-path="url(#a)"><rect width="60" height="60" rx="14" fill="url(#b)"/><g filter="url(#c)"><path d="M17.5 10.714c-.903 0-1.343 1.102-.69 1.724l12.9 12.286a1 1 0 0 0 .69.276H44a1 1 0 0 0 1-1V11.714a1 1 0 0 0-1-1H17.5Z" fill="#fff"/></g><g filter="url(#d)"><path d="M30.29 25.276A1 1 0 0 0 29.6 25H16a1 1 0 0 0-1 1v12.855a1 1 0 0 0 .312.726l13 12.32c.637.603 1.688.152 1.688-.726V39.76c0-.475.5-.475.5-.475h12c.903 0 1.343-1.101.69-1.724l-12.9-12.285Z" fill="#fff"/></g></g><defs><filter id="c" x="13.498" y="9.714" width="34.502" height="20.286" filterUnits="userSpaceOnUse" color-interpolation-filters="sRGB"><feFlood flood-opacity="0" result="BackgroundImageFix"/><feColorMatrix in="SourceAlpha" values="0 0 0 0 0 0 0 0 0 0 0 0 0 0 0 0 0 0 127 0" result="hardAlpha"/><feOffset dy="2"/><feGaussianBlur stdDeviation="1.5"/><feComposite in2="hardAlpha" operator="out"/><feColorMatrix values="0 0 0 0 0 0 0 0 0 0 0 0 0 0 0 0 0 0 0.2 0"/><feBlend in2="BackgroundImageFix" result="effect1_dropShadow_708_5043"/><feColorMatrix in="SourceAlpha" values="0 0 0 0 0 0 0 0 0 0 0 0 0 0 0 0 0 0 127 0" result="hardAlpha"/><feOffset dy="1"/><feComposite in2="hardAlpha" operator="out"/><feColorMatrix values="0 0 0 0 0 0 0 0 0 0.858824 0 0 0 0 1 0 0 0 1 0"/><feBlend in2="effect1_dropShadow_708_5043" result="effect2_dropShadow_708_5043"/><feColorMatrix in="SourceAlpha" values="0 0 0 0 0 0 0 0 0 0 0 0 0 0 0 0 0 0 127 0" result="hardAlpha"/><feOffset dy="1"/><feGaussianBlur stdDeviation=".5"/><feComposite in2="hardAlpha" operator="out"/><feColorMatrix values="0 0 0 0 0 0 0 0 0 0 0 0 0 0 0 0 0 0 0.2 0"/><feBlend in2="effect2_dropShadow_708_5043" result="effect3_dropShadow_708_5043"/><feBlend in="SourceGraphic" in2="effect3_dropShadow_708_5043" result="shape"/></filter><filter id="d" x="11" y="22" width="36.502" height="35.177" filterUnits="userSpaceOnUse" color-interpolation-filters="sRGB"><feFlood flood-opacity="0" result="BackgroundImageFix"/><feColorMatrix in="SourceAlpha" values="0 0 0 0 0 0 0 0 0 0 0 0 0 0 0 0 0 0 127 0" result="hardAlpha"/><feOffset dy="1"/><feGaussianBlur stdDeviation="2"/><feComposite in2="hardAlpha" operator="out"/><feColorMatrix values="0 0 0 0 0 0 0 0 0 0 0 0 0 0 0 0 0 0 0.25 0"/><feBlend in2="BackgroundImageFix" result="effect1_dropShadow_708_5043"/><feBlend in="SourceGraphic" in2="effect1_dropShadow_708_5043" result="shape"/></filter><linearGradient id="b" x1="30" y1="0" x2="30" y2="60" gradientUnits="userSpaceOnUse"><stop stop-color="#00CAFF"/><stop offset="1" stop-color="#5432FF"/></linearGradient><clipPath id="a"><rect width="60" height="60" rx="14" fill="#fff"/></clipPath></defs></svg>