<svg width="24" height="24" viewBox="0 0 24 24" fill="currentColor" aria-hidden="true">
  <path d="M12 .2C5.4.2 0 5.6 0 12.2c0 5.3 3.4 9.8 8.2 11.4.6.2.8-.2.8-.5v-2.2c-3 .6-3.8-.7-4-1.4-.1-.3-.7-1.4-1.2-1.7-.4-.2-1-.8 0-.8.9 0 1.6.9 1.8 1.2 1.1 1.8 2.8 1.3 3.5 1 .1-.8.4-1.3.8-1.6-2.7-.3-5.5-1.3-5.5-5.9 0-1.3.5-2.4 1.2-3.2-.1-.5-.5-1.7.1-3.3 0 0 1-.3 3.3 1.2 1-.3 2-.4 3-.4s2 .1 3 .4c2.3-1.6 3.3-1.2 3.3-1.2.7 1.6.2 2.9.1 3.2.8.8 1.2 1.9 1.2 3.2 0 4.6-2.8 5.6-5.5 5.9.4.4.8 1.1.8 2.2V23c0 .3.2.7.8.6 4.7-1.6 8.2-6.1 8.2-11.4.2-6.6-5.2-12-11.9-12z"/>
</svg>