<svg width="60" height="60" viewBox="0 0 60 60" fill="none" xmlns="http://www.w3.org/2000/svg"><g clip-path="url(#a)"><rect width="60" height="60" rx="14" fill="#300"/><g clip-path="url(#b)"><path d="M9.95.35h39.28C55.185.35 60 5.165 60 11.12v37.76c0 5.955-4.815 10.77-10.77 10.77H9.95A10.761 10.761 0 0 1-.82 48.88V11.12C-.82 5.165 3.993.35 9.95.35Z" fill="#300"/><path d="M28.576 35.829H19.15l-1.926 5.955a.443.443 0 0 1-.482.355h-4.764c-.279 0-.355-.152-.279-.456l8.16-23.492c.076-.254.153-.532.254-.837a8.85 8.85 0 0 0 .152-1.647c-.025-.127.076-.253.203-.279h6.563c.203 0 .304.076.33.203l9.25 26.102c.075.28 0 .406-.254.406H31.06c-.178.025-.355-.102-.406-.279l-2.078-6.031Zm-7.957-5.145h6.437a36.066 36.066 0 0 0-.583-1.824 76.587 76.587 0 0 1-.684-2.18c-.254-.785-.482-1.546-.735-2.331a54.725 54.725 0 0 1-.685-2.256c-.202-.71-.38-1.368-.557-1.976h-.05a31.118 31.118 0 0 1-.863 3.269c-.38 1.216-.76 2.483-1.165 3.75a49.753 49.753 0 0 1-1.115 3.548Zm21.642-10.82a3.136 3.136 0 0 1-2.256-.888 3.292 3.292 0 0 1-.861-2.331 2.981 2.981 0 0 1 .912-2.256 3.245 3.245 0 0 1 2.255-.887c.989 0 1.749.304 2.306.887a3.2 3.2 0 0 1 .837 2.256 3.207 3.207 0 0 1-.887 2.331 2.98 2.98 0 0 1-2.306.887ZM39.422 41.86V22.347c0-.254.102-.355.33-.355h5.018c.228 0 .329.127.329.355V41.86c0 .279-.101.406-.33.406h-4.966c-.254 0-.38-.153-.38-.406Z" fill="#FF9A00"/></g></g><defs><clipPath id="a"><rect width="60" height="60" rx="14" fill="#fff"/></clipPath><clipPath id="b"><path fill="#fff" transform="translate(-.82 .35)" d="M0 0h60.821v59.3H0z"/></clipPath></defs></svg>