<svg width="24" height="24" viewBox="0 0 24 24" fill="currentColor" aria-hidden="true">
  <path d="M7 .1C5.8.1 4.9.3 4.1.6 3.3 1 2.7 1.4 2 2S.9 3.4.6 4.2C.3 4.9.1 5.8.1 7.1S0 8.8 0 12s0 3.7.1 4.9c.1 1.3.3 2.1.6 2.9.3.9.7 1.5 1.3 2.2s1.3 1.1 2.1 1.4c.8.3 1.6.5 2.9.6h5c3.3 0 3.7 0 4.9-.1 1.3-.1 2.1-.3 2.9-.6.8-.3 1.5-.7 2.1-1.4s1.1-1.3 1.4-2.1c.3-.8.5-1.6.6-2.9.1-1.3.1-1.7.1-4.9 0-3.3 0-3.7-.1-4.9-.1-1.3-.3-2.1-.6-2.9-.3-.9-.7-1.5-1.3-2.2S20.7.9 19.9.6C19.1.3 18.3.1 17 0s-1.8 0-5 0-3.7 0-5 .1m.2 21.7c-1.2-.1-1.8-.2-2.2-.4-.6-.2-1-.5-1.4-.9-.4-.4-.7-.8-.9-1.4-.2-.4-.4-1.1-.4-2.2-.1-1.3-.1-1.6-.1-4.8 0-3.2 0-3.6.1-4.8 0-1.2.2-1.8.4-2.2.2-.6.5-1 .9-1.4S4.4 3 5 2.8c.3-.3 1-.5 2.1-.6H12c3.2 0 3.6 0 4.8.1 1.2.1 1.8.2 2.2.4.6.2 1 .5 1.4.9.4.4.7.8.9 1.4.2.4.4 1.1.4 2.2.1 1.3.1 1.6.1 4.8 0 3.2 0 3.6-.1 4.8-.1 1.2-.2 1.8-.4 2.2-.2.6-.5 1-.9 1.4s-.8.7-1.4.9c-.4.2-1.1.4-2.2.4-1.3.1-1.6.1-4.8.1H7.2M17 5.6c0 .8.6 1.4 1.4 1.4s1.4-.6 1.4-1.4-.6-1.4-1.4-1.4c-.8-.1-1.4.6-1.4 1.4M5.8 12c0 3.4 2.8 6.2 6.2 6.1 3.4 0 6.2-2.8 6.2-6.2 0-3.4-2.8-6.2-6.2-6.1-3.4 0-6.2 2.8-6.2 6.2M8 12c0-2.2 1.8-4 4-4s4 1.8 4 4-1.8 4-4 4-4-1.8-4-4"/>
</svg>