<svg width="24" height="24" viewBox="0 0 24 24" fill="currentColor" aria-hidden="true">
	<path d="M12.4 15s-.8-.6-2-1.9c2.1-2.9 3.3-6.2 3.8-7.7H16c.7 0 1.2-.5 1.2-1.2S16.7 3 16 3H9.7V2c0-.7-.5-1.2-1.2-1.2-.6.1-1.1.6-1.1 1.2v1.1H1.2C.5 3.1 0 3.6 0 4.3s.5 1.2 1.2 1.2h10.6c-.5 1.4-1.5 3.7-2.9 5.8C7.2 9 6.6 7.6 6.5 7.6 6.3 7 5.6 6.7 5 7c-.6.2-.9.9-.6 1.5 0 .1.8 1.8 2.8 4.5 0 .1.1.1.1.2-2.1 2.4-4.2 3.9-5 4.3-.6.3-.8 1-.5 1.6.3.6 1 .8 1.6.5.1-.1 2.6-1.4 5.4-4.6 1.2 1.3 2 1.9 2.1 1.9.5.4 1.3.3 1.7-.3.4-.5.3-1.2-.2-1.6zM23.9 21.5 19.1 9.8c-.2-.6-.9-.9-1.5-.6-.3.1-.5.3-.6.6l-4.8 11.7c-.3.6 0 1.3.6 1.5.6.3 1.3 0 1.5-.6l1-2.4h5.5l1 2.4c.2.4.6.7 1.1.7.7 0 1.2-.5 1.2-1.2-.1-.1-.1-.2-.2-.4zm-7.7-3.8 1.8-4.3 1.8 4.3h-3.6z"/>
</svg>