<svg width="60" height="60" viewBox="0 0 60 60" fill="none" xmlns="http://www.w3.org/2000/svg">
<rect width="60" height="60" rx="14" fill="black"/>
<g clip-path="url(#clip0_708_4401)">
<mask id="mask0_708_4401" style="mask-type:alpha" maskUnits="userSpaceOnUse" x="4" y="4" width="52" height="52">
<path d="M30 56C44.3594 56 56 44.3594 56 30C56 15.6406 44.3594 4 30 4C15.6406 4 4 15.6406 4 30C4 44.3594 15.6406 56 30 56Z" fill="black"/>
</mask>
<g mask="url(#mask0_708_4401)">
<path d="M30 56C44.3594 56 56 44.3594 56 30C56 15.6406 44.3594 4 30 4C15.6406 4 4 15.6406 4 30C4 44.3594 15.6406 56 30 56Z" fill="black"/>
<path d="M47.1913 49.5058L23.9745 19.6H19.6001V40.3913H23.0996V24.0441L44.4442 51.6219C45.4074 50.9774 46.3249 50.2699 47.1913 49.5058Z" fill="url(#paint0_linear_708_4401)"/>
<path d="M40.689 19.6H37.2223V40.4H40.689V19.6Z" fill="url(#paint1_linear_708_4401)"/>
</g>
</g>
<defs>
<linearGradient id="paint0_linear_708_4401" x1="35.489" y1="37.6555" x2="45.7445" y2="50.3666" gradientUnits="userSpaceOnUse">
<stop stop-color="white"/>
<stop offset="1" stop-color="white" stop-opacity="0"/>
</linearGradient>
<linearGradient id="paint1_linear_708_4401" x1="38.9556" y1="19.6" x2="38.8976" y2="34.875" gradientUnits="userSpaceOnUse">
<stop stop-color="white"/>
<stop offset="1" stop-color="white" stop-opacity="0"/>
</linearGradient>
<clipPath id="clip0_708_4401">
<rect width="52" height="52" fill="white" transform="translate(4 4)"/>
</clipPath>
</defs>
</svg>
