<svg width="60" height="60" viewBox="0 0 60 60" fill="none" xmlns="http://www.w3.org/2000/svg"><g clip-path="url(#a)"><rect width="60" height="60" rx="14" fill="#001E36"/><g clip-path="url(#b)"><path d="M9.697.2h39.478C55.161.2 60 5.04 60 11.025v37.95C60 54.961 55.16 59.8 49.175 59.8H9.697A10.816 10.816 0 0 1-1.128 48.975v-37.95C-1.128 5.039 3.712.2 9.697.2Z" fill="#001E36"/><path d="M12.626 41.996V15.788c0-.179.076-.28.254-.28.433 0 .84 0 1.427-.026.611-.025 1.248-.025 1.935-.05.688-.026 1.427-.026 2.216-.052.79-.025 1.554-.025 2.318-.025 2.089 0 3.82.254 5.247.79a9.096 9.096 0 0 1 3.413 2.088 8.11 8.11 0 0 1 1.86 2.903 9.748 9.748 0 0 1 .585 3.312c0 2.19-.51 3.998-1.528 5.425a8.726 8.726 0 0 1-4.1 3.107c-1.733.637-3.643.866-5.732.866-.61 0-1.018 0-1.273-.025-.255-.026-.611-.026-1.095-.026v8.176a.317.317 0 0 1-.28.357H12.93c-.203 0-.305-.102-.305-.332Zm5.552-21.573v8.558c.357.026.688.051.994.051h1.35c.993 0 1.986-.153 2.929-.458.815-.23 1.528-.714 2.088-1.35.535-.637.79-1.503.79-2.624a4.192 4.192 0 0 0-.586-2.267 3.694 3.694 0 0 0-1.783-1.451c-.943-.382-1.961-.535-3.006-.51-.662 0-1.248 0-1.732.026-.509-.026-.866 0-1.044.025ZM47.774 27.427a9.015 9.015 0 0 0-2.445-.866c-.942-.203-1.885-.33-2.852-.33a5.126 5.126 0 0 0-1.529.178 1.308 1.308 0 0 0-.79.51 1.35 1.35 0 0 0-.203.687c0 .229.102.458.255.662.229.28.535.51.866.688.586.305 1.197.585 1.808.84a18.45 18.45 0 0 1 3.923 1.86 5.926 5.926 0 0 1 2.012 2.114c.407.815.611 1.706.585 2.623a5.926 5.926 0 0 1-.993 3.388 6.383 6.383 0 0 1-2.852 2.266c-1.248.535-2.777.815-4.61.815a17.54 17.54 0 0 1-3.465-.33 10.275 10.275 0 0 1-2.597-.816c-.179-.102-.306-.28-.28-.484v-4.431c0-.077.025-.179.101-.23.077-.05.153-.025.23.026.993.585 2.037.993 3.158 1.248.968.254 1.987.382 3.005.382.968 0 1.656-.128 2.114-.357.408-.178.688-.611.688-1.07 0-.356-.204-.687-.611-1.018-.408-.331-1.248-.713-2.496-1.197a15.587 15.587 0 0 1-3.617-1.834 6.596 6.596 0 0 1-1.936-2.165 5.466 5.466 0 0 1-.586-2.598c0-1.095.306-2.14.866-3.082a6.279 6.279 0 0 1 2.675-2.343c1.197-.612 2.7-.892 4.508-.892 1.044 0 2.114.077 3.158.23a8.957 8.957 0 0 1 2.19.585c.102.026.204.128.255.23.026.101.051.203.051.305v4.152c0 .102-.05.204-.127.255-.23.05-.357.05-.459 0Z" fill="#31A8FF"/></g></g><defs><clipPath id="a"><rect width="60" height="60" rx="14" fill="#fff"/></clipPath><clipPath id="b"><path fill="#fff" transform="translate(-1.128 .2)" d="M0 0h61.128v59.6H0z"/></clipPath></defs></svg>