<svg width="60" height="60" viewBox="0 0 60 60" fill="none" xmlns="http://www.w3.org/2000/svg">
<g clip-path="url(#clip0_717_10813)">
<rect width="60" height="60" rx="14" fill="#001E36"/>
<g clip-path="url(#clip1_717_10813)">
<path d="M9.69661 0.200012H49.1752C55.1607 0.200012 60 5.03933 60 11.0248V48.9752C60 54.9607 55.1607 59.8 49.1752 59.8H9.69661C3.71114 59.8 -1.12817 54.9607 -1.12817 48.9752V11.0248C-1.12817 5.03933 3.71114 0.200012 9.69661 0.200012Z" fill="#001E36"/>
<path d="M12.6257 41.9964V15.7877C12.6257 15.6094 12.7021 15.5075 12.8804 15.5075C13.3134 15.5075 13.7209 15.5075 14.3068 15.4821C14.918 15.4566 15.5548 15.4566 16.2425 15.4311C16.9302 15.4056 17.6688 15.4056 18.4584 15.3802C19.248 15.3547 20.0121 15.3547 20.7762 15.3547C22.8647 15.3547 24.5967 15.6094 26.023 16.1443C27.2965 16.5773 28.4681 17.2904 29.436 18.2328C30.251 19.0479 30.8878 20.0412 31.2953 21.1364C31.6774 22.2062 31.8811 23.3014 31.8811 24.4475C31.8811 26.638 31.3717 28.4463 30.3529 29.8727C29.3341 31.299 27.9078 32.3687 26.2522 32.98C24.5203 33.6168 22.61 33.846 20.5215 33.846C19.9102 33.846 19.5027 33.846 19.248 33.8205C18.9933 33.795 18.6367 33.795 18.1527 33.795V41.9709C18.1782 42.1492 18.0509 42.3021 17.8726 42.3275C17.8471 42.3275 17.8216 42.3275 17.7707 42.3275H12.9314C12.7276 42.3275 12.6257 42.2256 12.6257 41.9964ZM18.1782 20.4233V28.9812C18.5348 29.0067 18.8659 29.0321 19.1715 29.0321H20.5215C21.5148 29.0321 22.5081 28.8793 23.4505 28.5737C24.2656 28.3444 24.9787 27.8605 25.5391 27.2238C26.0739 26.587 26.3286 25.721 26.3286 24.6003C26.3541 23.8108 26.1503 23.0212 25.7428 22.3335C25.3098 21.6713 24.6986 21.1619 23.9599 20.8817C23.0175 20.4997 21.9987 20.3468 20.9545 20.3723C20.2922 20.3723 19.7064 20.3723 19.2225 20.3978C18.7131 20.3723 18.3565 20.3978 18.1782 20.4233Z" fill="#31A8FF"/>
<path d="M47.7744 27.4275C47.0103 27.02 46.1953 26.7398 45.3293 26.5615C44.3869 26.3577 43.4445 26.2304 42.4766 26.2304C41.9672 26.2049 41.4324 26.2813 40.9484 26.4087C40.6173 26.4851 40.3372 26.6634 40.1589 26.9181C40.0315 27.1218 39.9551 27.3765 39.9551 27.6058C39.9551 27.835 40.057 28.0642 40.2098 28.268C40.439 28.5482 40.7447 28.7774 41.0758 28.9557C41.6616 29.2613 42.2729 29.5415 42.8842 29.7962C44.2596 30.2547 45.584 30.8914 46.8066 31.6555C47.6471 32.1904 48.3348 32.9035 48.8187 33.7695C49.2262 34.5846 49.43 35.476 49.4045 36.3929C49.43 37.59 49.0734 38.7871 48.4112 39.7805C47.698 40.7993 46.7047 41.5888 45.5585 42.0473C44.3105 42.5822 42.7823 42.8623 40.9484 42.8623C39.7768 42.8623 38.6307 42.7605 37.4845 42.5312C36.5931 42.3784 35.7016 42.0982 34.8866 41.7162C34.7083 41.6143 34.5809 41.436 34.6064 41.2323V36.8005C34.6064 36.7241 34.6319 36.6222 34.7083 36.5712C34.7847 36.5203 34.8611 36.5458 34.9375 36.5967C35.9308 37.1825 36.9751 37.59 38.0958 37.8447C39.0637 38.0994 40.0825 38.2268 41.1013 38.2268C42.0691 38.2268 42.7568 38.0994 43.2153 37.8702C43.6228 37.6919 43.903 37.2589 43.903 36.8005C43.903 36.4439 43.6992 36.1128 43.2917 35.7817C42.8842 35.4505 42.0437 35.0685 40.7956 34.5846C39.4967 34.1261 38.2996 33.5148 37.1789 32.7507C36.3893 32.1904 35.7271 31.4517 35.2431 30.5858C34.8356 29.7707 34.6319 28.8793 34.6573 27.9878C34.6573 26.8926 34.963 25.8483 35.5233 24.9059C36.1601 23.8871 37.1025 23.0721 38.1977 22.5627C39.3948 21.9514 40.8975 21.6712 42.7059 21.6712C43.7502 21.6712 44.8199 21.7476 45.8642 21.9005C46.6283 22.0023 47.3669 22.2061 48.0546 22.4863C48.1565 22.5117 48.2584 22.6136 48.3093 22.7155C48.3348 22.8174 48.3602 22.9193 48.3602 23.0211V27.1728C48.3602 27.2747 48.3093 27.3765 48.2329 27.4275C48.0037 27.4784 47.8763 27.4784 47.7744 27.4275Z" fill="#31A8FF"/>
</g>
</g>
<defs>
<clipPath id="clip0_717_10813">
<rect width="60" height="60" rx="14" fill="white"/>
</clipPath>
<clipPath id="clip1_717_10813">
<rect width="61.1282" height="59.6" fill="white" transform="translate(-1.12817 0.200012)"/>
</clipPath>
</defs>
</svg>
