<svg width="60" height="60" viewBox="0 0 60 60" fill="none" xmlns="http://www.w3.org/2000/svg"><rect width="60" height="60" rx="14" fill="url(#a)"/><g clip-path="url(#b)"><path d="M43.712 23.304a28.68 28.68 0 0 0-1.373-.433c.077-.316.149-.63.212-.937 1.04-5.047.36-9.112-1.962-10.451-2.225-1.283-5.866.055-9.542 3.254-.362.316-.716.641-1.062.975-.232-.222-.468-.44-.707-.653-3.853-3.42-7.715-4.863-10.034-3.52-2.224 1.287-2.883 5.11-1.947 9.892.093.474.199.945.316 1.414-.547.155-1.074.32-1.58.496-4.517 1.575-7.401 4.043-7.401 6.604 0 2.644 3.097 5.296 7.802 6.904.381.13.766.25 1.153.361a27.964 27.964 0 0 0-.335 1.523c-.892 4.7-.195 8.432 2.022 9.711 2.291 1.321 6.136-.037 9.88-3.31.303-.265.6-.539.89-.82.374.362.759.713 1.153 1.053 3.626 3.12 7.208 4.38 9.423 3.097 2.289-1.325 3.033-5.334 2.067-10.211a24.157 24.157 0 0 0-.256-1.14c.27-.08.535-.163.793-.248 4.892-1.62 8.074-4.24 8.074-6.92 0-2.57-2.978-5.055-7.586-6.641Zm-1.06 11.83a24.57 24.57 0 0 1-.717.225c-.54-1.71-1.27-3.527-2.16-5.406.85-1.833 1.55-3.627 2.076-5.326.436.127.86.26 1.268.4 3.948 1.36 6.357 3.37 6.357 4.918 0 1.649-2.601 3.79-6.825 5.19Zm-1.753 3.473c.427 2.157.488 4.107.205 5.631-.254 1.37-.765 2.283-1.397 2.649-1.345.778-4.22-.233-7.321-2.902a26.131 26.131 0 0 1-1.073-.978c1.202-1.315 2.404-2.844 3.576-4.541 2.063-.183 4.012-.483 5.779-.891.085.342.162.686.23 1.032Zm-17.721 8.145c-1.314.464-2.36.478-2.993.113-1.346-.776-1.905-3.773-1.142-7.792.09-.475.195-.947.311-1.416 1.748.386 3.683.664 5.75.832a44.378 44.378 0 0 0 3.663 4.525c-.265.256-.536.506-.813.748-1.656 1.447-3.314 2.474-4.776 2.99Zm-6.155-11.628c-2.08-.71-3.798-1.635-4.976-2.643-1.058-.907-1.593-1.806-1.593-2.536 0-1.554 2.317-3.536 6.18-4.883.469-.163.96-.317 1.468-.462a43.728 43.728 0 0 0 2.08 5.389 44.393 44.393 0 0 0-2.106 5.465 22.48 22.48 0 0 1-1.053-.33Zm2.063-14.043c-.802-4.098-.27-7.189 1.071-7.965 1.427-.826 4.584.352 7.91 3.306.218.193.431.39.64.591a43.67 43.67 0 0 0-3.634 4.498 44.525 44.525 0 0 0-5.693.885 26.697 26.697 0 0 1-.294-1.315Zm18.405 4.545c-.417-.72-.85-1.432-1.298-2.134 1.362.172 2.666.4 3.89.68a38.933 38.933 0 0 1-1.365 3.674 63.664 63.664 0 0 0-1.227-2.22Zm-7.506-7.31c.841.91 1.683 1.927 2.511 3.03-1.68-.079-3.363-.079-5.043 0a40.254 40.254 0 0 1 2.532-3.03Zm-7.553 7.322a53.92 53.92 0 0 0-1.205 2.207 40.239 40.239 0 0 1-1.355-3.692 41.176 41.176 0 0 1 3.868-.664 53.704 53.704 0 0 0-1.308 2.15Zm1.347 10.892a38.79 38.79 0 0 1-3.932-.632c.376-1.217.84-2.48 1.383-3.767a53.58 53.58 0 0 0 2.549 4.4Zm6.257 5.172a40.864 40.864 0 0 1-2.567-3.072c.817.032 1.65.048 2.496.048.87 0 1.73-.02 2.575-.057a38.782 38.782 0 0 1-2.504 3.081Zm8.7-9.636c.57 1.3 1.05 2.557 1.432 3.753-1.237.282-2.573.51-3.98.679.451-.715.888-1.44 1.31-2.171.43-.745.842-1.498 1.237-2.261Zm-2.817 1.35a59.78 59.78 0 0 1-2.047 3.303c-1.3.092-2.603.137-3.907.137-1.328 0-2.62-.042-3.863-.122a51.706 51.706 0 0 1-3.906-6.746 51.214 51.214 0 0 1 3.884-6.733 51.6 51.6 0 0 1 7.777.002 54.946 54.946 0 0 1 2.056 3.282 59.672 59.672 0 0 1 1.84 3.423 54.92 54.92 0 0 1-1.834 3.454Zm3.76-20.354c1.429.824 1.984 4.147 1.087 8.504-.058.278-.122.562-.192.849a43.64 43.64 0 0 0-5.705-.902c-1.172-1.67-2.387-3.187-3.607-4.501.32-.308.647-.608.982-.9 3.15-2.741 6.094-3.823 7.435-3.05Zm-9.714 13.073a3.81 3.81 0 1 1 0 7.62 3.81 3.81 0 0 1 0-7.62Z" fill="#00D8FF"/></g><defs><linearGradient id="a" x1="30" y1="0" x2="30" y2="60" gradientUnits="userSpaceOnUse"><stop stop-color="#23272F"/><stop offset="1" stop-color="#191C22"/></linearGradient><clipPath id="b"><path fill="#fff" transform="translate(8.632 11)" d="M0 0h42.667v38H0z"/></clipPath></defs></svg>