<svg width="60" height="60" viewBox="0 0 60 60" fill="none" xmlns="http://www.w3.org/2000/svg"><g clip-path="url(#a)"><path d="M7.782 55.17 5.927 5.75a3.01 3.01 0 0 1 2.82-3.117L50.783.006A3.01 3.01 0 0 1 53.98 3.01v53.852a3.01 3.01 0 0 1-3.146 3.008l-40.18-1.805a3.01 3.01 0 0 1-2.873-2.894Z" fill="#FF4785"/><mask id="b" style="mask-type:luminance" maskUnits="userSpaceOnUse" x="5" y="0" width="49" height="60"><path d="M7.782 55.17 5.927 5.75a3.01 3.01 0 0 1 2.82-3.117L50.783.006A3.01 3.01 0 0 1 53.98 3.01v53.852a3.01 3.01 0 0 1-3.146 3.008l-40.18-1.805a3.01 3.01 0 0 1-2.873-2.894Z" fill="#fff"/></mask><g mask="url(#b)"><path d="m41.41 7.36.288-6.906L47.47 0l.249 7.122a.45.45 0 0 1-.727.368l-2.226-1.754-2.636 2a.45.45 0 0 1-.72-.377Zm-7.382 15.207c0 1.171 7.888.61 8.947-.213 0-7.975-4.279-12.166-12.115-12.166-7.837 0-12.227 4.256-12.227 10.64 0 11.12 15.006 11.332 15.006 17.397 0 1.702-.834 2.713-2.668 2.713-2.39 0-3.335-1.22-3.224-5.37 0-.9-9.114-1.18-9.392 0-.707 10.056 5.558 12.957 12.727 12.957 6.947 0 12.393-3.703 12.393-10.407 0-11.917-15.227-11.597-15.227-17.503 0-2.394 1.778-2.713 2.834-2.713 1.112 0 3.112.196 2.946 4.665Z" fill="#fff"/></g></g><defs><clipPath id="a"><path fill="#fff" d="M0 0h60v60H0z"/></clipPath></defs></svg>