<svg width="60" height="60" viewBox="0 0 60 60" fill="none" xmlns="http://www.w3.org/2000/svg"><rect width="60" height="60" rx="14" fill="#0F172A"/><g clip-path="url(#a)"><mask id="b" style="mask-type:luminance" maskUnits="userSpaceOnUse" x="9" y="18" width="42" height="25"><path d="M9.545 18h40.91v24.545H9.545V18Z" fill="#fff"/></mask><g mask="url(#b)"><path fill-rule="evenodd" clip-rule="evenodd" d="M30 18c-5.455 0-8.864 2.727-10.227 8.182 2.045-2.727 4.431-3.75 7.159-3.068 1.556.388 2.668 1.518 3.899 2.767 2.005 2.036 4.326 4.392 9.396 4.392 5.455 0 8.864-2.727 10.228-8.182-2.046 2.727-4.432 3.75-7.16 3.068-1.556-.389-2.668-1.518-3.899-2.767C37.391 20.356 35.07 18 30 18ZM19.773 30.273c-5.455 0-8.864 2.727-10.228 8.182 2.046-2.728 4.432-3.75 7.16-3.069 1.556.39 2.668 1.518 3.899 2.768 2.005 2.035 4.326 4.391 9.396 4.391 5.455 0 8.864-2.727 10.227-8.181-2.045 2.727-4.432 3.75-7.159 3.068-1.556-.389-2.668-1.518-3.9-2.768-2.004-2.035-4.326-4.391-9.395-4.391Z" fill="#38BDF8"/></g></g><defs><clipPath id="a"><path fill="#fff" transform="translate(9.545 18)" d="M0 0h40.909v25H0z"/></clipPath></defs></svg>