<svg width="60" height="60" viewBox="0 0 60 60" fill="none" xmlns="http://www.w3.org/2000/svg">
<rect width="60" height="60" rx="14" fill="#0F172A"/>
<g clip-path="url(#clip0_717_11809)">
<mask id="mask0_717_11809" style="mask-type:luminance" maskUnits="userSpaceOnUse" x="9" y="18" width="42" height="25">
<path d="M9.54541 18H50.4545V42.5455H9.54541V18Z" fill="white"/>
</mask>
<g mask="url(#mask0_717_11809)">
<path fill-rule="evenodd" clip-rule="evenodd" d="M30 18C24.5454 18 21.1363 20.7273 19.7727 26.1818C21.8181 23.4545 24.2045 22.4318 26.9318 23.1136C28.4878 23.5023 29.6 24.6318 30.831 25.8811C32.8363 27.9167 35.1575 30.2727 40.2272 30.2727C45.6818 30.2727 49.0909 27.5455 50.4545 22.0909C48.409 24.8182 46.0227 25.8409 43.2954 25.1591C41.7393 24.7705 40.6272 23.6409 39.3962 22.3917C37.3909 20.3561 35.0697 18 30 18ZM19.7727 30.2727C14.3181 30.2727 10.909 33 9.54541 38.4545C11.5909 35.7273 13.9772 34.7045 16.7045 35.3864C18.2606 35.7758 19.3727 36.9045 20.6037 38.1538C22.609 40.1894 24.9303 42.5455 30 42.5455C35.4545 42.5455 38.8636 39.8182 40.2272 34.3636C38.1818 37.0909 35.7954 38.1136 33.0681 37.4318C31.5121 37.0432 30.4 35.9136 29.1689 34.6644C27.1636 32.6288 24.8424 30.2727 19.7727 30.2727Z" fill="#38BDF8"/>
</g>
</g>
<defs>
<clipPath id="clip0_717_11809">
<rect width="40.9091" height="25" fill="white" transform="translate(9.54541 18)"/>
</clipPath>
</defs>
</svg>
