<svg width="60" height="60" viewBox="0 0 60 60" fill="none" xmlns="http://www.w3.org/2000/svg"><g clip-path="url(#a)"><path d="M54.14 0H5.86A5.86 5.86 0 0 0 0 5.86v48.28A5.86 5.86 0 0 0 5.86 60h48.28A5.86 5.86 0 0 0 60 54.14V5.86A5.86 5.86 0 0 0 54.14 0Z" fill="#3178C6"/><path d="M54.14 0H5.86A5.86 5.86 0 0 0 0 5.86v48.28A5.86 5.86 0 0 0 5.86 60h48.28A5.86 5.86 0 0 0 60 54.14V5.86A5.86 5.86 0 0 0 54.14 0Z" fill="#3178C6"/><path fill-rule="evenodd" clip-rule="evenodd" d="M37.141 47.745v5.867c.954.488 2.082.855 3.384 1.1 1.302.244 2.675.366 4.117.366 1.407 0 2.742-.134 4.008-.403 1.265-.27 2.375-.712 3.329-1.33a6.772 6.772 0 0 0 2.265-2.42c.556-.995.834-2.227.834-3.693 0-1.064-.159-1.995-.477-2.796a6.535 6.535 0 0 0-1.375-2.136 10.071 10.071 0 0 0-2.155-1.677 23.088 23.088 0 0 0-2.834-1.403 35.691 35.691 0 0 1-2.072-.925c-.612-.3-1.131-.605-1.56-.917-.427-.312-.757-.642-.99-.99a2.084 2.084 0 0 1-.348-1.183c0-.403.104-.767.312-1.09.208-.324.501-.602.88-.835.38-.232.844-.412 1.394-.54a8.088 8.088 0 0 1 1.834-.193 12.286 12.286 0 0 1 3.191.449c.55.153 1.085.346 1.605.578.52.232 1 .5 1.44.806V28.9a14.323 14.323 0 0 0-2.926-.76c-1.057-.166-2.27-.248-3.64-.248-1.394 0-2.715.15-3.962.449-1.247.3-2.344.767-3.292 1.402a7.008 7.008 0 0 0-2.246 2.43c-.55.983-.826 2.16-.826 3.528 0 1.748.505 3.24 1.513 4.474 1.009 1.234 2.54 2.279 4.595 3.135.806.33 1.558.653 2.255.971.697.318 1.3.648 1.807.99.507.342.908.715 1.201 1.118.294.404.44.862.44 1.375 0 .38-.091.73-.275 1.055-.183.323-.461.604-.834.843-.373.238-.838.425-1.394.559-.556.134-1.207.202-1.953.202-1.272 0-2.531-.223-3.778-.67a11.274 11.274 0 0 1-3.467-2.007ZM27.28 33.291h7.526v-4.814H13.828v4.814h7.49v21.436h5.96V33.29Z" fill="#fff"/></g><defs><clipPath id="a"><rect width="60" height="60" rx="14" fill="#fff"/></clipPath></defs></svg>