<svg width="60" height="60" viewBox="0 0 60 60" fill="none" xmlns="http://www.w3.org/2000/svg">
<g clip-path="url(#clip0_717_10088)">
<rect width="60" height="60" rx="14" fill="#330000"/>
<g clip-path="url(#clip1_717_10088)">
<path d="M9.94974 0.350006H49.2297C55.185 0.350006 60 5.16496 60 11.1203V48.8797C60 54.835 55.185 59.65 49.2297 59.65H9.94974C3.9944 59.65 -0.820557 54.835 -0.820557 48.8797V11.1203C-0.820557 5.16496 3.9944 0.350006 9.94974 0.350006Z" fill="#330000"/>
<path d="M28.5761 35.8286H19.1489L17.2229 41.784C17.1723 42.0121 16.9695 42.1641 16.7415 42.1388H11.9772C11.6984 42.1388 11.6224 41.9867 11.6984 41.6826L19.8585 18.1907C19.9345 17.9373 20.0106 17.6585 20.1119 17.3544C20.2133 16.8222 20.264 16.2647 20.264 15.7072C20.2386 15.5805 20.34 15.4538 20.4667 15.4284H27.0303C27.233 15.4284 27.3344 15.5044 27.3597 15.6312L36.6095 41.7333C36.6855 42.0121 36.6095 42.1388 36.3561 42.1388H31.0596C30.8822 42.1641 30.7048 42.0374 30.6541 41.86L28.5761 35.8286ZM20.6188 30.6842H27.0556C26.9035 30.1521 26.7008 29.5185 26.4727 28.8596C26.2447 28.1754 26.0166 27.4405 25.7885 26.6802C25.5351 25.8946 25.307 25.1344 25.0536 24.3488C24.8002 23.5632 24.5721 22.8283 24.3694 22.0933C24.1666 21.3838 23.9892 20.7249 23.8118 20.1167H23.7612C23.5331 21.2064 23.2543 22.2961 22.8995 23.3858C22.5194 24.6022 22.1393 25.8693 21.7338 27.1364C21.379 28.4288 20.9989 29.6199 20.6188 30.6842ZM42.2607 19.8633C41.4244 19.8886 40.6135 19.5592 40.0053 18.9763C39.4224 18.3427 39.1183 17.5065 39.1437 16.6448C39.1183 15.7832 39.4478 14.9723 40.056 14.3894C40.6642 13.8065 41.4751 13.5024 42.3114 13.5024C43.2997 13.5024 44.06 13.8065 44.6175 14.3894C45.175 14.9976 45.4791 15.8086 45.4538 16.6448C45.4791 17.5065 45.175 18.3427 44.5668 18.9763C43.984 19.5845 43.1224 19.9139 42.2607 19.8633ZM39.4224 41.86V22.3468C39.4224 22.0933 39.5238 21.992 39.7519 21.992H44.7696C44.9976 21.992 45.099 22.1187 45.099 22.3468V41.86C45.099 42.1388 44.9976 42.2655 44.7696 42.2655H39.8026C39.5491 42.2655 39.4224 42.1134 39.4224 41.86Z" fill="#FF9A00"/>
</g>
</g>
<defs>
<clipPath id="clip0_717_10088">
<rect width="60" height="60" rx="14" fill="white"/>
</clipPath>
<clipPath id="clip1_717_10088">
<rect width="60.8205" height="59.3" fill="white" transform="translate(-0.820557 0.350006)"/>
</clipPath>
</defs>
</svg>
