<svg width="60" height="60" viewBox="0 0 60 60" fill="none" xmlns="http://www.w3.org/2000/svg">
<rect width="60" height="60" rx="14" fill="url(#paint0_linear_707_3326)"/>
<g clip-path="url(#clip0_707_3326)">
<path d="M45.1592 22.5991C44.6573 22.4269 44.1512 22.2674 43.6413 22.1207C43.7269 21.7707 43.8058 21.425 43.8758 21.0853C45.0249 15.5072 44.2737 11.0134 41.7078 9.53381C39.2477 8.11539 35.2243 9.59442 31.161 13.1307C30.7606 13.4798 30.369 13.839 29.9867 14.208C29.7307 13.9626 29.4703 13.7221 29.2054 13.4864C24.9469 9.70531 20.6783 8.1117 18.1152 9.59552C15.6573 11.0184 14.9295 15.2429 15.964 20.5293C16.0669 21.0529 16.1831 21.5738 16.3125 22.0914C15.7083 22.2631 15.1253 22.4459 14.5673 22.6404C9.57449 24.3812 6.38599 27.1092 6.38599 29.9388C6.38599 32.8613 9.80899 35.7927 15.0092 37.5701C15.4308 37.7136 15.856 37.8466 16.2842 37.9689C16.1451 38.5265 16.0216 39.0878 15.9139 39.6522C14.9276 44.847 15.6978 48.9716 18.1491 50.3854C20.6809 51.8455 24.9303 50.3449 29.0678 46.7279C29.4033 46.4339 29.7315 46.1315 30.0519 45.8211C30.4659 46.2205 30.891 46.6084 31.3266 46.9842C35.3347 50.433 39.293 51.8256 41.7419 50.4079C44.2713 48.9436 45.0934 44.5126 44.0261 39.1217C43.942 38.6994 43.8477 38.2791 43.7433 37.8613C44.0417 37.7729 44.3346 37.6819 44.6202 37.5872C50.0264 35.7962 53.5439 32.9004 53.5439 29.9388C53.5439 27.0988 50.2524 24.3524 45.1592 22.5991ZM43.9867 35.6751C43.7288 35.7604 43.4642 35.8428 43.1946 35.9229C42.5977 34.0334 41.7924 32.0244 40.8066 29.9486C41.7472 27.9223 42.5216 25.9389 43.1017 24.0618C43.5842 24.2014 44.0522 24.3486 44.5036 24.5039C48.8675 26.0063 51.5294 28.2273 51.5294 29.9388C51.5294 31.7618 48.6546 34.1283 43.9867 35.6751ZM42.0499 39.513C42.5218 41.8967 42.5891 44.0519 42.2765 45.7369C41.9957 47.2509 41.4309 48.2602 40.7324 48.6645C39.2464 49.5248 36.0682 48.4067 32.6406 45.4571C32.2354 45.1077 31.84 44.7471 31.4548 44.3758C32.7837 42.9225 34.1117 41.2331 35.4078 39.3568C37.6876 39.1545 39.8414 38.8237 41.7946 38.3722C41.8887 38.7504 41.9738 39.1307 42.0499 39.513ZM22.4631 48.5159C21.0112 49.0285 19.8547 49.0433 19.1556 48.6402C17.6681 47.7824 17.0497 44.4704 17.8932 40.028C17.9935 39.5031 18.1083 38.981 18.2375 38.4624C20.1692 38.8898 22.3073 39.197 24.5924 39.3824C25.8974 41.2184 27.2637 42.9059 28.6406 44.3837C28.348 44.6668 28.0485 44.9427 27.7422 45.2112C25.9125 46.8105 24.079 47.9452 22.4631 48.5159ZM15.661 35.6639C13.3615 34.8779 11.4625 33.8564 10.1608 32.7418C8.99109 31.7402 8.4007 30.7457 8.4007 29.9388C8.4007 28.2216 10.9607 26.0313 15.2305 24.5427C15.7487 24.3622 16.291 24.1918 16.8537 24.0319C17.444 25.9514 18.218 27.9584 19.1521 29.9878C18.2059 32.0473 17.4207 34.0863 16.8248 36.0284C16.434 35.9165 16.0459 35.7949 15.661 35.6639ZM17.9411 20.1423C17.0549 15.6131 17.6435 12.1966 19.1247 11.3391C20.7023 10.4258 24.1909 11.7279 27.8679 14.9929C28.1077 15.2063 28.3435 15.424 28.5754 15.6459C27.2053 17.1172 25.8515 18.7922 24.5582 20.6174C22.3403 20.823 20.2172 21.1531 18.2654 21.5954C18.1451 21.1139 18.037 20.6292 17.9411 20.1423ZM38.283 25.1654C37.8219 24.369 37.3438 23.5827 36.8489 22.8069C38.3535 22.9972 39.7951 23.2498 41.1489 23.5585C40.7425 24.8612 40.236 26.2231 39.6397 27.6194C39.2038 26.7924 38.7515 25.9743 38.283 25.1654ZM29.9876 17.0857C30.9167 18.0924 31.8474 19.2163 32.7627 20.4358C30.9059 20.3481 29.0459 20.3477 27.1891 20.4347C28.1053 19.2264 29.0439 18.104 29.9876 17.0857ZM21.639 25.1792C21.1763 25.9816 20.7324 26.7947 20.3077 27.6178C19.7212 26.2264 19.2192 24.8583 18.8093 23.5371C20.1548 23.2361 21.5896 22.99 23.0847 22.8032C22.5842 23.5837 22.1022 24.3761 21.639 25.1792ZM23.1276 37.2177C21.583 37.0453 20.1266 36.8119 18.7815 36.519C19.1978 35.1743 19.7109 33.777 20.3101 32.3558C20.7365 33.1796 21.1822 33.9931 21.6469 34.7959C22.1247 35.6212 22.6195 36.4295 23.1276 37.2177ZM30.0432 42.9338C29.0883 41.9037 28.1359 40.7639 27.2058 39.5382C28.1088 39.5736 29.0293 39.5916 29.9649 39.5916C30.9261 39.5916 31.8763 39.5701 32.8115 39.5284C31.8932 40.7763 30.9661 41.9177 30.0432 42.9338ZM39.6586 32.2833C40.289 33.7201 40.8203 35.11 41.2421 36.4317C39.8749 36.7437 38.3986 36.995 36.8432 37.1816C37.3416 36.3914 37.8243 35.5914 38.2909 34.7821C38.7653 33.9594 39.2213 33.1262 39.6586 32.2833ZM36.5459 33.7755C35.8315 35.0165 35.077 36.2338 34.2836 37.4257C32.8463 37.5275 31.4058 37.578 29.9649 37.5773C28.4973 37.5773 27.0699 37.5316 25.6953 37.4424C24.8811 36.2533 24.1122 35.0338 23.3903 33.7866C22.6717 32.546 22.0007 31.2785 21.3783 29.9869C21.9991 28.695 22.6683 27.4269 23.3844 26.1853L23.3842 26.1855C24.1 24.9436 24.8628 23.7293 25.6708 22.5453C27.0732 22.4392 28.5113 22.384 29.9647 22.384C31.4248 22.384 32.865 22.4398 34.267 22.5466C35.0668 23.7289 35.8247 24.939 36.5392 26.1747C37.2577 27.4135 37.9357 28.6754 38.5722 29.9583C37.9423 31.2544 37.2664 32.5276 36.5459 33.7755ZM40.7016 11.279C42.2807 12.1898 42.8949 15.8624 41.9027 20.6785C41.8393 20.9858 41.7682 21.2988 41.6909 21.6162C39.7342 21.1645 37.6097 20.8287 35.3853 20.62C34.0896 18.7747 32.7469 17.0971 31.399 15.6448C31.7523 15.3043 32.1139 14.9726 32.4836 14.6501C35.9652 11.6204 39.2191 10.4241 40.7016 11.279ZM29.9649 25.7278C32.2906 25.7278 34.176 27.6132 34.176 29.9388C34.176 32.2645 32.2906 34.1499 29.9649 34.1499C27.6393 34.1499 25.7539 32.2645 25.7539 29.9388C25.7539 27.6132 27.6393 25.7278 29.9649 25.7278Z" fill="#00D8FF"/>
</g>
<defs>
<linearGradient id="paint0_linear_707_3326" x1="30" y1="0" x2="30" y2="60" gradientUnits="userSpaceOnUse">
<stop stop-color="#23272F"/>
<stop offset="1" stop-color="#191C22"/>
</linearGradient>
<clipPath id="clip0_707_3326">
<rect width="47.1581" height="42" fill="white" transform="translate(6.38599 9)"/>
</clipPath>
</defs>
</svg>
